<svg xmlns="http://www.w3.org/2000/svg" width="800" height="600" viewBox="0 0 800 600">
  <rect width="800" height="600" fill="#f2f2f2"/>
  <circle cx="660" cy="100" r="55" fill="#d8d8d8"/>
  <rect x="0" y="430" width="800" height="170" fill="#c8c8c8"/>
  <path d="M0 430 Q 200 400 420 430 T 800 430 L 800 600 L 0 600 Z" fill="#bdbdbd"/>
  <rect x="180" y="260" width="260" height="180" fill="#e0e0e0" stroke="#555" stroke-width="4"/>
  <path d="M150 260 L310 150 L470 260 Z" fill="#5a5a5a"/>
  <rect x="330" y="330" width="70" height="110" fill="#6e6e6e" stroke="#444" stroke-width="4"/>
  <circle cx="385" cy="390" r="5" fill="#333"/>
  <rect x="210" y="300" width="70" height="60" fill="#ffffff" stroke="#555" stroke-width="4"/>
  <line x1="245" y1="300" x2="245" y2="360" stroke="#555" stroke-width="3"/>
  <line x1="210" y1="330" x2="280" y2="330" stroke="#555" stroke-width="3"/>
  <rect x="395" y="170" width="34" height="70" fill="#8a8a8a" stroke="#555" stroke-width="3"/>
  <ellipse cx="600" cy="330" rx="75" ry="95" fill="#9a9a9a"/>
  <ellipse cx="560" cy="290" rx="45" ry="55" fill="#8a8a8a"/>
  <ellipse cx="640" cy="280" rx="40" ry="50" fill="#a8a8a8"/>
  <rect x="588" y="410" width="24" height="70" fill="#666"/>
  <path d="M100 480 Q 130 470 160 480" stroke="#888" stroke-width="4" fill="none"/>
  <path d="M480 500 Q 520 488 560 500" stroke="#888" stroke-width="4" fill="none"/>
</svg>
